<?xml version="1.0" encoding="utf-8"?>
<svg id="svg2" version="1.1" width="1293px" height="869px" xmlns="http://www.w3.org/2000/svg">
  <g id="g15397" transform="matrix(0.39221, 0, 0, 0.411614, -1995.478149, 909.306519)" style="">
    <path id="path5216-1" d="M 8363.931 -2177.825 L 8014.621 -1976.155 L 8088.105 -1933.725 L 8086.623 -1932.943 L 8098.558 -1927.688 L 8147.334 -1899.541 L 7560.154 -938.901 L 7219.314 -1506.571 L 7174.256 -1586.764 L 7123.244 -1515.124 L 6581.854 -679.984 L 6172.004 -1336.394 L 6135.667 -1398.446 L 6084.963 -1348.72 L 5202.423 -375.08 L 5282.141 -307.521 L 6113.981 -1229.251 L 6535.381 -556.371 L 6582.703 -484.759 L 6630.025 -563.638 L 7167.225 -1396.008 L 7513.965 -820.458 L 7565.536 -740.209 L 7612.271 -825.964 L 8239.871 -1846.064 L 8363.951 -1774.424 L 8363.951 -2177.764 L 8363.931 -2177.825 Z" style="color: rgb(0, 0, 0); text-transform: none; text-indent: 0px; fill: rgb(226, 83, 135); fill-rule: nonzero;"/>
  </g>
  <g id="g3856" transform="matrix(8.9575, 0, 0, 8.9575, 86.040176, 78.892448)">
    <path id="path3858" d="m59.846 47.835-0.95669-0.85039-0.35433-0.28346 0.03543-0.07087-0.1063-0.56693-0.5315-1.9134s-0.46063-0.81496-0.60236-0.88583c-0.1063-0.1063-0.07087-0.4252-0.07087-0.4252l-0.1063-1.878-0.46063-0.6378-0.07087-0.4252-0.07087-1.6299-0.4252-1.7362s0.1063-0.49606 0.1063-0.60236c0-0.14173 0.28346-1.6654 0.28346-1.6654l-0.17716-1.2402-0.56693-2.1968-0.17717-0.60236 0.17717-1.0984 0.14173-1.9134-0.35433-1.5591s-0.2126-0.17717-0.4252-0.4252h-0.03543c-0.318-0.356-0.744-0.746-0.779-0.817-0.071-0.106-1.595-1.311-1.595-1.311l-1.2402-0.56693-0.28346-0.28346 0.03543-0.7441c0.1063 0 0.46063-0.46063 0.38976-0.70866-0.07087-0.28346-0.07087-0.60236-0.1063-0.77953-0.03543-0.17716-0.07087-0.35433 0.03543-0.5315 0.1063-0.17716 0.14173-0.28346 0.1063-0.5315-0.03543-0.24803-0.2126-0.49606-0.2126-0.49606s0.03543-0.28346-0.1063-0.49606c-0.14173-0.24803-0.38976-0.38976-0.38976-0.38976l0.03543-0.81496-0.1063-1.2402-0.28346-1.8425-0.60236-1.311-1.0984-0.77953-1.1339-0.2126-1.4528-0.35433-1.063 0.49606-1.2402 0.03543-0.49606 0.60236s-0.3189 0.38976-0.35433 0.46063c-0.03543 0.1063-0.17716 0.5315-0.17716 0.5315l0.14173 0.17717-0.07087 0.2126-0.67323 1.5945-0.1063 0.95669 0.17717 0.2126-0.1063 0.49606-0.70866 0.81496-0.07087 0.67323 0.28346 0.07087 0.4252 0.1063-0.1063 0.35433 0.1063 0.24803-0.03543 0.3189v1.311l0.35433 0.28346 1.5945 0.3189-0.6378 0.85039 0.60236-0.77953-0.81496 0.07087-1.2047-0.14173s-0.95669-0.28346-1.063-0.28346c-0.07087 0-0.60236 0.3189-0.70866 0.35433s-0.4252 0.24803-0.4252 0.24803l-0.92126 0.14173s-0.6378-0.1063-0.81496-0.24803c-0.2126-0.1063-0.6378-0.17716-0.6378-0.17716s-0.7441-0.24803-0.99213-0.4252c-0.2126-0.2126-0.5315-0.74409-0.5315-0.74409s-0.85039-0.1063-0.99213-0.1063c-0.1063 0-0.70866-0.46063-0.70866-0.46063l-0.42517-0.92126s-0.88583-0.3189-1.063-0.28346c-0.143 0.033-0.391-0.286-0.498-0.392l-0.03543-0.2126v0.14173h-0.03543l0.07087-0.99213s-0.60236-1.2402-0.70866-1.3465c-0.07087-0.1063-0.6378-1.4882-0.85039-1.9134-0.2126-0.38976-0.4252-1.1339-0.4252-1.1339l-0.28346-0.60236v-0.03543l0.07087 0.4252-0.24803-1.4173 0.07087-1.5945 0.17716-1.2402 0.38976-1.2756 0.03543-0.4252v-1.3819l0.14173-0.14173-0.07087-0.38976s0.03543-1.8071 0.07087-1.878c0.03543-0.070866-0.03543-0.4252-0.03543-0.4252h-0.3189l-0.106 0.1776-0.284 0.7086-0.141-0.5669-0.178-0.5669-0.141-0.3189-0.107-0.5669 0.036-0.56697-0.177-0.46063h-0.39l-0.177 0.46063-0.142-0.1063-0.2126 0.49606 0.17717 0.95669-0.17717 1.5591-0.28346 0.70866-0.1063-0.24803-0.35433-0.24803-0.2126 0.1063 0.24803 0.49606s-0.17717 0.56693-0.24803 0.6378c-0.07087 0.070866-0.28346 0.88583-0.28346 0.88583l-0.14173 1.1339-0.2126 0.67323-0.3189 0.35433-0.1063 0.6378-0.14173 0.1063-0.35433 0.92126-0.46063 0.99213 1.1693 0.28346-1.1693-0.28346-0.2126 0.2126-2.622 4.0039s-1.0984 1.4882-1.1693 1.5591c-0.07087 0.07087-0.14173 0.56693-0.14173 0.56693s-0.03543 0.35433-0.03543 0.28346c0-0.1063-0.4252 0.1063-0.4252 0.1063l-0.67323 0.46063-0.28346 0.49606s-0.49606-0.17717-0.60236-0.24803c-0.1063-0.03543-0.49606 0-0.60236 0.03543-0.07087 0.03543-0.1063 0.35433-0.1063 0.35433l-0.60236 0.28346-0.38976-0.17716-0.4252 0.07087-0.28346-0.56693 0.2126 0.46063c0.14173 0 0.2126 0.03543 0.2126 0.03543l0.38976-0.3189v-0.3189l-0.1063-0.77953 0.28346-1.3465 0.14173-0.56693 0.03543-0.74409-0.3189-0.56693-0.1063-0.17717 0.03543-0.60236 0.1063-0.60236-0.07087-0.3189-0.5315-0.60236-0.3189-0.70866-0.07087-0.2126 0.07087-0.3189 0.24803-0.3189s0-0.38976 0.03543-0.46063c0.03543-0.1063-0.1063-0.5315-0.1063-0.5315s-0.56693-0.4252-0.67323-0.46063c-0.1063-0.070866-0.38976 0.070866-0.38976 0.070866l-0.744-0.1065-1.488-0.3898-0.851-0.1417-0.815 0.2835-1.24 0.1771-0.8502 0.3544-0.8858 1.2047-0.35433 1.1693-0.17717 1.9843 0.17717 1.311 0.77953 1.8071 0.85039 0.85039 0.38976 0.17717-0.1063-0.03543 0.1063 0.17716-0.2126 0.1063-0.28346 0.46063-0.4252 0.60236-0.070866 0.60236-0.7441 0.602-0.3189 0.85-0.2834 0.284-0.3189 1.24-0.6733 0.956-0.5315 1.028-0.4606 1.346-0.5315 0.709-0.248 1.24 0.070866 1.311-0.4252 0.49606-0.49606 0.6378-0.70866 2.5866-0.49606 2.5157 0.3189 0.70866v4.1811l0.2126 2.9409-0.14173 2.3032 0.1063 2.1968 0.28346 0.03543h0.035433c-0.035433 0.24803-0.070866 0.6378-0.070866 0.6378l-0.2126 0.56693s-0.3189 0.67323-0.3189 0.70866c-0.035433 0.03543 0 0.38976 0 0.4252 0 0.03543 0.070866 0.1063 0.1063 0.1063 0.035433 0 0.2126-0.03543 0.24803-0.07087 0.035433-0.03543 0.49606-0.67323 0.49606-0.67323l0.24803-0.4252 0.2126 0.07087s0.070866 0.1063 0.035433 0.14173-0.3189 0.88583-0.3189 0.88583l-0.38976 0.67323-0.17717 0.2126s0.070866 0.14173 0.070866 0.17716c0.0354 0.035 0.248 0.177 0.248 0.177s0.24803-0.17716 0.28346-0.17716c0.070866-0.03543 0.60236-0.85039 0.60236-0.85039l0.24803-0.74409 0.035433-0.2126s0.14173 0 0.2126 0.07087c0.070866 0.1063 0.035433 0.2126 0.035433 0.2126l-0.3543 0.993-0.4606 0.638-0.1418 0.39s0.14173 0.03543 0.24803 0.07087c0.14173 0.03543 0.49606-0.24803 0.5315-0.28346 0.035433-0.03543 0.28346-0.46063 0.28346-0.46063l0.35433-0.81496 0.14173-0.1063-0.035433 0.5315-0.2126 0.67323-0.3189 0.5315 0.1063 0.14173 0.2126 0.07087 0.46063-0.60236 0.24803-0.38976 0.035433 0.17716 0.28346 1.3819 0.14173 0.60236-0.38976 1.9134 0.070866 0.95669-0.5669 2.692-0.3189 2.764-0.1417 0.709-1.1339 1.523-0.4606 1.063-0.8504 1.666-0.6378 3.72-0.8149 3.331-0.7441 1.984s-0.1063 1.063-0.1063 1.1339c0.035433 0.07087-0.070866 0.85039-0.070866 0.85039s-0.38976 0.46063-0.4252 0.56693c-0.035433 0.07087-0.60236 1.5236-0.60236 1.5236l-0.07093 0.992-0.03544 0.744-0.070864 0.036-0.070866 1.665 1.1693 0.425-0.8504-0.319-0.07087 1.134 0.6378 1.169 0.46067 0.532 1.1692 0.354 0.9567-0.142 0.3189-0.177 0.74409 0.38976 0.95669 0.38976 2.0551-0.03543 2.0906-0.03543 1.6654-0.60236 0.6378-0.24803-0.24803-0.2126-0.35433-0.4252-0.38976-0.35433-1.4173-0.14173-1.063-0.70866s-0.95669-0.49606-1.0984-0.5315c-0.035433-0.03543-0.24803-0.3189-0.4252-0.5315l-1.1339 0.46063 1.4173-0.60236v-0.3189l-0.49606-1.063-0.35433-0.14173-0.2126-0.46063 1.2756-0.1063 0.24803-0.4252 2.2323-4.2874 1.1693-2.9409 0.49606 4.6772 0.81496 3.0472 0.2126 0.3189-0.14173 0.28346v1.3465h0.24803l0.07087 0.35433 0.46063 0.88583 0.4252 0.6378 0.99213 0.03543 1.4528-0.07087 0.17716-0.99213 0.56693 0.14173 1.3819 0.67323 0.56693 0.4252 1.9488 0.14173 1.878-0.24803 0.81496-0.28346 1.063-0.24803v-0.2126l-0.2126 0.03543-0.07087-0.46063-0.6378-0.17716s-1.2402-0.4252-1.311-0.4252c-0.1063 0-1.6299-0.38976-1.6299-0.38976l-0.56693-0.49606-0.70866-0.85039 0.1063-0.07087-0.38976-0.85039-0.28346-0.56693-0.35433-0.07087-0.3189-0.35433v-0.14173l0.5315-0.14173 0.38976-0.46063-0.14173-0.95669-0.3189-0.85039-0.24803-0.4252 0.92126-7.8307-0.14173-1.8071-0.07087-3.2244-0.2126-6.2717 0.28346-5.1024v-0.7441l-0.2126-0.4252 0.07087-1.311 2.6929-1.6299-0.14173-2.0197-0.49606-3.5433 1.2756-4.4291 0.28346-0.14173-1.5945-4.3228-0.95669-2.5157 0.2126-1.2756 0.1063-3.1535-0.07087-1.0984-0.38976-1.4882 0.60236-0.3189 0.3189-0.60236 1.311-0.46063 0.6378-0.67323 2.2323-1.6654 0.17716-0.4252 0.60236-0.49606 1.2402-2.0197 1.2047-1.9488-0.92126 1.4882 0.07087 0.17716 1.4528 3.1535 0.88583 1.0984s1.5945 1.3465 1.878 1.5591c0.3189 0.17717 1.6654 1.2402 1.6654 1.2402l2.374 2.1968 2.6575 1.3819-0.07087 0.85039-0.28346 2.5866-0.2126 3.9331-0.2126 0.46063-0.6378 0.95669-0.17717 0.56693 0.38976 0.24803-1.0276 2.9055 0.4252 0.28346 0.70866 0.99213 0.24803 0.38976 0.07087-0.1063-0.1063 0.99213-0.1063 2.1969-0.28346 2.4094-0.14173 2.8701 0.14173 3.2953 0.28346 3.2598 0.24803 1.2047-0.2126 0.60236s0.28346 0.03543 0.38976 0.14173c0 0.03543 0.14173 0.07087 0.35433 0.14173-0.07087-0.03543-0.14173-0.03543-0.17716-0.07087l0.35433 2.9055 0.2126 2.1614 0.92126 1.3819 0.88583 0.81496 1.4882 2.8346 0.70866 1.3819-0.03543 2.622 0.2126 4.1102-0.24803 2.6575-0.77953 2.1614-1.2047 1.1339s-0.49606 0.67323-0.70866 0.99213l0.3189 0.1063-0.3189-0.1063-0.60236 0.35433-0.92126 0.3189-0.92126 0.3189-0.3189 0.3189 0.1063 0.56693 0.17716 1.0276 1.2402 0.6378s1.7362 0.14173 1.8425 0.14173 1.7717-0.07087 1.7717-0.07087l0.7441-0.28346 0.3189-0.95669 0.56693-1.6299 0.88583-0.88583 0.99213-0.4252 0.3189 0.24803-0.24803 2.5866-0.1063 0.95669 0.2126 0.1063 0.49606-0.14173 0.35433-2.7992 0.56693-1.9488v-0.5315l-0.35433-1.2402-0.6378-0.56693-1.0984 1.063 1.0276-0.99213-0.2126-0.28346-0.03543-2.126 0.4252-1.5591 1.0276 2.2677 0.74409 2.5157v0.4252l-0.3189 1.2756s-0.35433 1.0276-0.35433 1.2047c0 0.2126 0.24803 0.56693 0.24803 0.56693l0.81496 0.38976s0.38976 0.35433 0.49606 0.35433 2.5866-1.8071 2.5866-1.8071l0.60236-1.4528-0.60236-1.3465-0.46063-1.0276 0.38976-1.2756 0.56693-0.5315 1.0984 0.3189 1.0276 0.6378 0.17717-0.49606-0.77953-0.49606-0.77953-1.063-0.92126-0.95669-0.14173-0.38976-0.92126 0.03543-0.70866-0.1063-0.3189 0.17717-0.2126-0.17717-1.1693-1.9488-0.95669-2.3031-0.28346-3.9331-0.6378-2.7638-0.24803-1.878 0.49606-2.7283 0.14173-0.74409-1.7362 0.3189 1.9134-0.35433 1.8071-0.35433 0.38976 0.14173 0.1063-1.8071 0.17716-4.4291 0.1063-2.0197 0.17717-2.8701-0.14173-3.1535-0.28346-0.77953-0.07087-0.14173-2.9409-0.3189 3.1181 0.35433-0.07087-1.5236-0.1063-1.311-0.17717-0.60236-0.1063-2.4803-0.2126-0.38976 0.46063-0.81496 0.70866-0.77953 0.17716-0.3189 0.1063-1.3465 0.56693-0.60236 0.3189 0.3189-0.07087 0.46063 0.28346 1.7008 0.74409 2.4094 0.70866 3.6496 0.5315 2.4449 0.88583 3.2598 0.28346 0.28346 0.14173 0.4252 0.14173 0.28346 0.35433-0.1063 0.14173-0.14173 0.60236 0.24803 1.0276 0.14173 0.4252-0.1063 0.03543 0.17716-0.03543 0.60236 0.17716 0.60236 0.14173 0.07087-0.14173 0.49606 0.24803 0.2126-0.1063 0.38976 0.24803 0.14173 0.56693-0.77953 0.28346-0.38976 0.35433-0.92126-0.14173-0.85039 0.24803 0.28346 0.1063 0.4252-0.1063 0.88583 0.14173 0.24803h0.2126l0.28346-1.063-0.07087-0.88583zm-43.654-37.807 0.4252 0.6378-0.38976-0.60236-0.1063-0.070866 0.07087 0.035433zm11.657 1.5591 0.3189 0.2126 0.77953 0.5315-1.0984-0.7441zm11.942 47.374c-0.03543-0.03543-0.1063-0.03543-0.2126-0.07087 0.1063 0.03543 0.17716 0.03543 0.2126 0.07087zm9.3898-38.516h-0.03543c0.03543 0 0.1063 0.03543 0.14173 0.03543-0.03543 0-0.07087-0.03543-0.1063-0.03543zm-0.07087-0.03543l-0.03543-0.03543 0.03543 0.03543zm-10.984 38.055c0.1063 0.03543 0.2126 0.07087 0.3189 0.1063-0.1063-0.03543-0.2126-0.07087-0.3189-0.1063zm0.35433 0.1063c0.1063 0.03543 0.24803 0.07087 0.35433 0.1063-0.1063-0.03543-0.24803-0.07087-0.35433-0.1063zm0.74409 0.2126c-0.1063-0.03543-0.2126-0.03543-0.3189-0.07087 0.1063 0.03543 0.2126 0.03543 0.3189 0.07087zm0.03543 0.03543c0.1063 0 0.2126 0.03543 0.28346 0.07087-0.07087-0.03543-0.17716-0.07087-0.28346-0.07087zm0.5315 0.14173h0.1063-0.1063" style="fill: rgb(42, 42, 41);"/>
  </g>
</svg>