<?xml version="1.0" encoding="utf-8"?>
<svg id="svg2717" version="1.1" width="395px" height="269px" xmlns="http://www.w3.org/2000/svg" xmlns:bx="https://boxy-svg.com">
  <path id="path2735" d="M 149.93 52.477 L 149.93 141.669 L 144.684 148.125 C 144.684 148.285 143.191 142.833 143.191 142.833 C 141.367 136.344 135.395 129.964 126.438 129.964 L 109.518 129.964 C 101.557 129.964 95.285 137.145 93.989 141.648 L 85.87 172.112 L 96.713 172.112 L 103.276 147.581 L 105.94 147.581 L 99.523 172.112 L 137.879 172.112 L 131.006 147.581 L 133.805 147.581 L 137.475 159.606 C 139.209 164.686 143.581 165.857 146.94 161.527 L 160.233 145.008 C 160.684 144.404 160.993 143.801 161.187 143.204 L 326.451 143.204 L 326.448 52.475 L 149.93 52.477 Z M 152.967 55.496 L 323.414 55.496 L 323.414 140.185 L 161.199 140.185 C 160.766 138.882 159.789 137.814 158.575 137.208 L 188.433 104.941 L 189.626 106.115 L 160.556 137.528 L 320.499 137.528 L 320.499 58.153 L 155.878 58.153 L 155.878 136.686 C 154.879 136.781 153.87 137.201 152.965 138.03 L 152.967 55.496 Z M 118.247 101.687 C 111.431 101.687 105.899 107.371 105.899 114.385 C 105.899 121.399 111.431 127.082 118.247 127.082 C 125.061 127.082 130.584 121.399 130.584 114.385 C 130.584 107.371 125.061 101.687 118.247 101.687 Z M 83.194 175.027 L 83.194 180.831 L 149.719 180.831 L 149.719 175.027 L 83.194 175.027 Z M 83.194 181.951 L 83.194 185.238 L 139.094 185.238 L 139.094 229.927 L 83.194 229.927 L 83.194 233.523 L 142.421 233.523 L 142.421 181.954 L 83.194 181.951 Z M 83.194 185.696 L 83.194 229.361 L 138.234 229.361 L 138.234 185.696 L 83.194 185.696 Z" style="fill: rgb(42, 42, 41);"/>
  <path d="M 344.891 250.235 m -194.708 0 a 194.708 132.463 0 1 0 389.416 0 a 194.708 132.463 0 1 0 -389.416 0 Z M 344.891 250.235 m -188.866 0 a 188.866 128.489 0 0 1 377.732 0 a 188.866 128.489 0 0 1 -377.732 0 Z" style="stroke: rgb(0, 0, 0); fill: rgb(24, 65, 153); paint-order: stroke; stroke-width: 0px;" transform="matrix(0.998146, -0.060871, 0, 1.001858, -144.144414, -95.05754)" bx:shape="ring 344.891 250.235 188.866 128.489 194.708 132.463 1@a6ffcd12"/>
</svg>