<?xml version="1.0" encoding="utf-8"?>
<svg id="svg3190" version="1.1" xmlns="http://www.w3.org/2000/svg">
  <g id="layer1" transform="matrix(1.706286, 0, 0, 1.703439, -354.094391, -990.066772)" style="">
    <path id="path3218" style="fill: rgb(42, 42, 41);" d="M 253.108 737.987 C 253.131 737.926 253.266 737.822 253.406 737.755 C 253.547 737.689 253.96 737.368 254.325 737.042 C 254.689 736.716 255.161 736.355 255.372 736.24 C 269.619 720.748 287.097 726.576 304.283 713.228 C 305.114 712.588 305.384 712.446 306.182 712.225 L 306.94 712.014 L 306.978 709.623 C 306.999 708.307 306.98 706.432 306.935 705.457 L 306.855 703.682 L 307.074 702.686 C 307.195 702.138 307.413 701.36 307.559 700.958 C 307.707 700.551 307.857 699.944 307.898 699.592 C 307.996 698.737 309.228 689.124 309.287 688.751 C 310.001 688.025 310.419 687.356 310.421 686.468 C 310.421 685.895 310.366 685.6 310.075 684.607 C 309.807 683.691 309.738 683.341 309.767 683.043 C 309.81 682.591 310.057 681.931 310.265 681.709 C 310.347 681.623 310.468 681.422 310.535 681.262 C 310.619 681.064 310.72 680.959 310.854 680.931 C 310.962 680.909 311.134 680.874 311.237 680.853 C 311.543 680.79 312.25 681.081 313.455 681.763 C 314.364 682.114 314.717 682.607 315.208 683.385 C 315.971 684.299 316.089 685.442 316.248 686.375 C 316.604 688.474 316.611 688.693 316.44 692.402 C 316.286 695.718 316.287 696.376 316.446 696.533 C 316.591 696.678 316.97 696.693 317.212 696.565 C 319.541 694.407 321.254 692.7 323.679 690.335 C 324.272 690.317 324.878 690.339 325.449 690.451 C 325.633 690.515 325.904 690.568 326.05 690.568 C 329.221 689.898 332.433 688.959 335.533 688.881 L 337.922 688.827 L 339.077 689.206 L 340.231 689.585 L 341.368 690.881 L 342.504 692.177 L 343.53 696.468 L 344.557 700.759 C 344.122 702.596 343.709 704.386 343.707 706.272 C 344.202 708.281 342.299 707.608 342.288 708.771 C 342.255 711.89 343.095 714.123 344.491 716.574 C 344.752 718.426 344.137 719.91 343.471 721.591 L 341.725 722.957 C 340.765 723.708 338.57 725.437 336.846 726.8 C 334.436 728.704 333.396 729.473 332.345 730.126 L 330.977 730.976 C 326.563 732.263 322.295 733.929 318.454 736.486 C 318.133 736.706 317.826 736.886 317.772 736.887 C 317.663 736.888 317.109 737.57 317.109 737.703 C 317.109 737.748 317.179 737.856 317.266 737.941 L 317.423 738.098 L 285.244 738.098 C 257.448 738.098 253.07 738.082 253.107 737.986 L 253.108 737.987 Z M 318.795 737.438 C 322.564 734.734 326.967 733.294 331.506 731.79 L 332.963 730.885 C 334.121 730.166 335.061 729.474 337.554 727.503 C 339.279 726.14 341.488 724.4 342.463 723.637 L 344.235 722.248 C 345.354 720.269 345.358 718.338 345.358 716.145 C 344.224 714.579 343.774 713.092 343.505 711.212 C 343.328 709.967 343.191 708.937 343.201 708.923 C 344.341 708.158 344.57 707.834 344.571 706.749 C 344.427 704.708 345.169 702.76 345.437 700.757 C 345.437 700.502 343.803 693.433 343.385 691.875 C 343.33 691.672 342.967 691.194 342.2 690.314 C 341.592 689.617 341.027 688.988 340.943 688.917 C 340.86 688.845 340.236 688.602 339.556 688.378 L 338.32 687.969 L 335.564 688.018 C 332.678 687.163 328.186 690.16 325.792 689.568 C 324.855 689.449 324.106 689.476 323.141 689.476 L 321.915 690.665 C 321.241 691.319 319.901 692.627 318.937 693.572 L 317.183 695.291 L 317.228 694.471 C 317.49 691.662 317.456 688.021 317.106 685.939 C 317.07 684.708 316.675 683.875 316.043 682.876 C 315.594 681.851 314.959 681.509 314.027 680.985 C 313.327 680.592 312.729 680.261 312.697 680.25 C 312.665 680.238 312.972 678.841 313.378 677.145 C 313.787 675.44 314.379 672.668 314.703 670.941 L 315.287 667.819 L 316.518 663.995 C 317.194 661.892 317.795 660.028 317.852 659.853 L 317.956 659.536 L 316.372 658.847 C 315.501 658.468 314.596 658.032 314.36 657.877 C 313.974 657.623 313.917 657.549 313.787 657.127 C 313.504 656.212 313.43 655.547 313.49 654.473 C 313.539 653.593 313.589 653.325 313.87 652.444 C 314.25 651.252 314.482 650.75 314.931 650.152 C 315.379 649.555 315.444 649.492 315.851 649.262 C 316.083 649.131 316.394 649.042 316.756 649.004 C 317.059 648.972 317.36 648.939 317.425 648.932 C 318.35 648.821 318.618 648.825 319.274 648.956 L 319.982 649.098 L 320.006 649.551 L 320.03 650.005 L 319.809 649.943 C 319.688 649.909 319.358 649.872 319.077 649.862 C 318.796 649.851 318.477 649.82 318.369 649.793 C 317.999 649.7 316.643 649.745 316.419 649.857 C 316.301 649.916 316.17 649.953 316.126 649.939 C 316.021 649.904 315.764 650.102 315.744 650.233 C 315.736 650.29 315.696 650.388 315.657 650.451 C 315.446 650.785 315.568 651.205 315.988 651.599 C 316.261 651.854 316.642 652.342 317.414 653.423 C 317.584 653.661 317.78 653.902 317.849 653.959 C 317.919 654.017 317.975 654.106 317.975 654.159 C 317.975 654.212 318.079 654.333 318.205 654.429 C 318.331 654.525 318.671 654.882 318.96 655.221 C 319.249 655.561 319.513 655.822 319.546 655.802 C 319.58 655.781 319.632 655.263 319.663 654.651 C 319.693 654.038 319.739 653.453 319.763 653.35 C 319.794 653.221 319.78 653.18 319.718 653.218 C 319.607 653.286 319.592 652.862 319.702 652.753 C 319.767 652.687 319.916 652.012 319.984 651.469 C 319.997 651.361 320.014 651.274 320.021 651.274 C 320.027 651.274 320.046 651.205 320.062 651.122 C 320.077 651.039 320.111 650.89 320.136 650.791 C 320.161 650.692 320.129 650.488 320.066 650.338 C 320.002 650.187 319.975 650.065 320.005 650.065 C 320.145 650.07 321.466 650.325 322.972 650.64 C 324.297 650.917 325.131 651.155 327.181 651.841 L 329.739 652.697 L 331.131 653.602 L 332.524 654.507 L 332.722 655.131 L 332.92 655.754 L 332.326 657.174 C 331.753 658.542 331.703 658.628 330.971 659.527 L 330.211 660.46 L 329.505 660.768 L 328.799 661.076 L 326.554 660.988 L 324.309 660.9 L 321.901 660.246 C 319.508 659.597 318.919 659.399 318.92 659.239 C 318.92 659.194 319.003 658.816 319.104 658.399 L 319.289 657.642 L 319.045 657.416 C 318.839 657.225 317.784 656.335 317.436 656.058 C 317.142 655.825 316.48 655.41 316.165 655.261 C 315.971 655.169 315.714 655.029 315.594 654.95 C 315.447 654.852 315.302 654.82 315.144 654.852 C 314.995 654.881 314.89 654.862 314.85 654.797 C 314.725 654.591 314.541 654.6 314.411 654.819 C 314.261 655.072 314.194 655.428 314.144 656.241 C 314.085 657.215 314.337 657.547 315.637 658.21 C 316.587 658.696 318.104 659.267 318.47 659.279 C 318.637 659.284 318.638 659.287 318.487 659.35 C 318.4 659.387 318.259 659.44 318.172 659.469 C 317.919 659.554 319.032 659.929 321.201 660.489 C 323.793 661.158 325.32 661.344 327.607 661.267 C 329.127 661.217 329.191 661.208 329.732 660.976 C 330.24 660.758 330.375 660.645 331.254 659.701 L 332.219 658.666 L 332.7 657.506 C 332.964 656.869 333.21 656.268 333.247 656.173 C 333.313 656 333.341 656.007 335.957 656.886 C 337.411 657.374 338.616 657.79 338.636 657.809 C 338.655 657.828 338.616 658.833 338.548 660.042 L 338.426 662.24 L 339.307 663.488 C 339.792 664.175 340.227 664.766 340.275 664.803 C 340.322 664.839 343.081 665.946 346.406 667.263 L 352.45 669.657 L 353.815 669.86 C 354.942 670.028 355.308 670.053 355.915 670.004 L 356.649 669.944 L 357.734 668.747 L 358.818 667.55 L 359.229 667.712 C 359.455 667.801 361.137 668.45 362.967 669.155 L 366.294 670.436 L 369.34 672.643 L 372.387 674.849 L 372.791 676.037 C 373.013 676.69 373.214 677.297 373.237 677.385 L 373.279 677.545 L 373.58 677.39 C 374.212 677.066 374.189 677.205 373.879 675.585 L 373.602 674.141 L 372.719 673.254 C 371.953 672.486 371.043 671.777 365.884 667.934 L 359.933 663.5 L 359.877 662.802 L 359.821 662.104 L 359.022 661.323 L 358.223 660.542 L 355.303 659.326 C 352.594 658.198 352.18 658.051 349.574 657.283 C 345.806 656.174 344.338 655.88 341.973 655.761 L 340.218 655.673 L 339.653 656.23 L 339.088 656.787 L 337.128 656.191 C 336.05 655.864 334.823 655.491 334.401 655.363 L 333.634 655.13 L 333.632 654.841 C 333.63 654.595 333.543 654.451 333.056 653.888 C 332.497 653.243 332.445 653.205 331.133 652.501 C 329.957 651.87 329.493 651.676 327.519 650.991 C 324.726 650.022 324.997 650.099 322.342 649.513 C 321.131 649.246 320.127 649.018 320.113 649.006 C 320.099 648.994 320.21 648.804 320.36 648.583 C 320.629 648.186 320.632 648.171 320.592 647.534 C 320.545 646.791 320.608 646.575 321.954 642.845 C 322.356 641.729 322.812 640.306 322.967 639.684 C 323.312 638.299 323.353 638.206 323.906 637.593 C 324.15 637.324 324.349 637.073 324.349 637.037 C 324.349 637.001 324.721 636.648 325.175 636.253 C 326.117 635.435 326.326 635.164 326.764 634.182 C 327.223 633.153 328.658 630.912 329.184 630.402 C 329.424 630.169 329.621 629.937 329.621 629.885 C 329.621 629.657 330.835 628.667 331.47 628.378 C 331.686 628.279 331.997 628.093 332.161 627.965 C 332.506 627.695 333.634 627.119 333.818 627.119 C 333.887 627.119 334.257 626.961 334.64 626.768 C 335.023 626.575 335.379 626.416 335.431 626.416 C 336.793 625.511 337.919 623.863 339.566 623.722 C 341.326 623.496 342.662 621.996 344.117 622.057 C 345.496 621.743 346.974 621.82 348.23 621.862 C 349.009 621.888 349.706 621.939 349.779 621.977 C 349.852 622.015 350.029 622.046 350.172 622.047 C 350.316 622.047 350.734 622.12 351.102 622.208 C 351.478 622.299 352.149 622.384 352.636 622.403 C 353.112 622.421 353.838 622.478 354.249 622.529 C 354.66 622.579 355.138 622.618 355.311 622.614 C 356.245 622.595 356.976 622.541 357.068 622.484 C 357.135 622.443 357.241 622.484 357.363 622.597 C 357.468 622.695 357.573 622.756 357.597 622.732 C 357.655 622.674 358.229 623.217 358.203 623.305 C 358.192 623.342 358.219 623.373 358.262 623.373 C 358.305 623.373 358.341 623.423 358.341 623.485 C 358.341 623.638 358.989 624.153 359.182 624.153 C 361.843 625.184 364.266 627.174 366.749 628.302 C 366.895 628.384 367.08 628.43 367.16 628.404 C 367.822 628.608 368.195 628.963 368.852 629.304 C 368.905 629.304 369.11 629.482 369.308 629.7 C 369.505 629.918 369.7 630.076 369.739 630.052 C 369.779 630.028 369.832 630.087 369.857 630.184 C 369.906 630.379 370.347 630.861 370.487 630.872 C 370.536 630.876 370.771 631.103 371.009 631.377 C 371.678 632.145 371.739 632.203 372.012 632.319 C 372.153 632.379 372.268 632.463 372.268 632.506 C 372.268 632.549 372.46 632.706 372.696 632.855 C 373.089 633.197 373.559 633.398 373.92 633.695 C 373.92 633.753 374.08 633.95 374.275 634.134 C 374.469 634.318 374.629 634.528 374.629 634.601 C 374.629 634.789 375.649 635.753 375.913 635.814 C 376.318 635.908 376.722 636.417 377.157 637.382 C 377.215 637.51 377.334 637.69 377.421 637.782 C 377.508 637.873 377.668 638.075 377.776 638.23 C 377.884 638.386 378.15 638.615 378.366 638.74 C 378.887 639.04 379.428 639.555 379.428 639.75 C 379.428 639.836 379.64 640.128 379.898 640.4 C 380.256 640.775 380.365 640.944 380.354 641.104 C 380.346 641.219 380.4 641.38 380.474 641.461 C 380.548 641.542 380.609 641.644 380.609 641.688 C 380.609 641.731 380.676 641.827 380.758 641.901 C 380.911 642.038 381.046 642.373 380.916 642.294 C 380.744 642.189 380.872 642.434 381.19 642.822 C 381.391 643.066 381.67 643.303 381.857 643.386 C 382.034 643.465 382.158 643.562 382.133 643.602 C 382.09 643.671 382.162 643.902 382.382 644.406 C 382.438 644.534 382.561 644.868 382.655 645.147 C 382.748 645.426 382.911 645.824 383.015 646.031 C 383.127 646.253 383.205 646.546 383.205 646.742 C 383.205 646.997 383.265 647.153 383.461 647.41 C 383.602 647.595 383.752 647.802 383.795 647.871 C 383.839 647.939 383.895 648.013 383.921 648.035 C 383.967 648.073 384.331 648.813 384.746 649.713 C 384.905 650.057 384.972 650.345 384.999 650.805 C 385.018 651.149 385.085 651.527 385.146 651.647 C 385.207 651.766 385.243 651.889 385.224 651.92 C 385.206 651.951 385.228 652.064 385.274 652.171 C 385.382 652.424 385.413 653.509 385.315 653.629 C 385.267 653.689 385.275 653.786 385.338 653.903 C 385.395 654.009 385.444 654.458 385.456 654.992 C 385.467 655.491 385.52 656.053 385.573 656.24 C 385.745 656.849 385.797 658.058 385.661 658.307 C 385.606 658.409 385.572 658.877 385.573 659.517 C 385.575 660.535 385.468 661.514 385.329 661.773 C 385.29 661.844 385.279 661.978 385.304 662.071 C 385.341 662.212 385.323 662.232 385.202 662.189 C 385.121 662.16 385.08 662.163 385.11 662.197 C 385.141 662.231 385.113 662.361 385.048 662.485 C 384.983 662.61 384.95 662.743 384.974 662.782 C 384.998 662.821 384.911 663.142 384.78 663.497 C 384.65 663.852 384.543 664.219 384.543 664.313 C 384.543 664.407 384.492 664.655 384.43 664.864 C 384.227 665.543 384.055 666.325 383.995 666.843 C 383.962 667.122 383.86 667.516 383.767 667.717 C 383.675 667.919 383.599 668.114 383.599 668.151 C 383.599 668.189 383.489 668.322 383.354 668.448 C 383.219 668.574 382.986 668.941 382.835 669.263 C 382.685 669.585 382.476 670.011 382.372 670.21 C 382.268 670.409 382.182 670.643 382.182 670.729 C 382.182 670.816 382.115 671.022 382.033 671.187 C 381.951 671.352 381.786 671.689 381.666 671.935 C 381.547 672.181 381.384 672.441 381.305 672.513 C 381.225 672.584 381.16 672.669 381.16 672.701 C 381.16 672.733 381.036 672.942 380.884 673.165 C 380.733 673.388 380.608 673.664 380.608 673.778 C 380.608 674.021 380.283 674.74 380.02 675.082 C 379.919 675.214 379.794 675.477 379.742 675.666 C 379.691 675.855 379.584 676.055 379.506 676.109 C 379.427 676.164 379.339 676.314 379.31 676.443 C 379.282 676.571 379.213 676.703 379.157 676.735 C 379.101 676.768 378.971 676.948 378.868 677.136 C 378.55 677.718 378.509 677.777 378.336 677.897 C 378.244 677.961 378.115 678.117 378.048 678.244 C 377.932 678.468 377.939 678.491 378.306 679.117 C 378.514 679.471 378.759 679.953 378.851 680.189 C 379.037 680.665 379.206 681.463 379.153 681.614 C 379.134 681.667 379.103 681.864 379.083 682.051 C 379.045 682.407 378.614 683.361 378.25 683.896 C 377.936 684.358 377.236 685.701 377.031 686.238 C 376.656 687.218 376.441 687.832 376.117 688.852 C 375.933 689.432 375.775 689.941 375.766 689.984 C 375.729 690.165 375.479 690.845 375.423 690.918 C 375.389 690.962 375.237 691.297 375.085 691.662 C 374.933 692.027 374.724 692.454 374.62 692.611 C 374.517 692.768 374.308 693.096 374.156 693.341 C 373.87 693.804 373.195 694.557 372.957 694.68 C 372.882 694.718 372.541 695.017 372.2 695.344 C 371.859 695.671 371.313 696.134 370.987 696.373 C 370.662 696.612 370.282 696.91 370.143 697.035 C 370.005 697.161 369.586 697.466 369.211 697.714 C 368.837 697.962 368.439 698.226 368.328 698.3 C 367.545 698.824 365.654 699.557 364.557 699.762 C 364.019 699.863 363.857 699.927 363.731 700.086 C 363.644 700.196 363.388 700.478 363.162 700.715 C 362.936 700.951 362.75 701.179 362.749 701.222 C 362.746 701.338 362.375 701.664 361.857 702.004 C 361.574 702.19 361.323 702.434 361.2 702.642 C 361.091 702.827 360.969 702.983 360.93 702.988 C 360.891 702.993 360.823 703.002 360.78 703.007 C 360.737 703.013 360.71 703.041 360.721 703.07 C 360.732 703.099 360.59 703.231 360.406 703.363 C 360.215 703.501 360.072 703.667 360.072 703.752 C 360.072 703.834 359.969 703.987 359.843 704.092 C 359.573 704.317 359.245 704.908 359.276 705.113 C 359.288 705.196 359.263 705.237 359.218 705.209 C 359.173 705.182 359.101 705.222 359.056 705.298 C 359.012 705.374 358.974 705.404 358.973 705.363 C 358.969 705.257 358.74 705.574 358.737 705.689 C 358.735 705.742 358.598 706.075 358.431 706.43 C 357.637 708.124 357.625 708.183 358.02 708.57 C 358.285 708.829 358.59 709.337 359.212 710.555 C 359.29 710.708 359.403 710.874 359.462 710.922 C 359.585 711.024 360.272 711.221 361.016 711.368 C 361.643 711.492 361.69 711.507 363.298 712.094 C 373.715 717.979 386.173 718.772 397.133 723.441 C 397.63 723.657 398.226 723.913 398.457 724.01 C 398.688 724.108 398.916 724.227 398.965 724.275 C 399.013 724.323 399.108 724.363 399.175 724.364 C 399.406 724.368 402.15 725.787 403.18 726.435 C 403.584 726.69 403.989 726.94 404.079 726.991 C 404.69 727.335 406.576 728.587 407.086 728.988 C 407.13 729.022 407.431 729.238 407.755 729.468 C 408.08 729.699 408.42 729.952 408.512 730.032 C 408.603 730.111 408.73 730.212 408.795 730.255 C 409.387 730.649 409.577 730.748 409.919 730.839 C 410.456 730.983 411.127 731.364 411.426 731.696 C 411.562 731.848 411.836 732.151 412.036 732.37 C 412.235 732.589 412.398 732.826 412.398 732.898 C 412.398 733.132 412.709 733.684 413.009 733.979 C 413.17 734.139 413.542 734.489 413.834 734.757 C 414.126 735.025 414.365 735.276 414.365 735.314 C 414.365 735.352 414.466 735.511 414.59 735.668 C 415.001 736.188 415.649 737.365 415.599 737.499 C 415.58 737.55 415.634 737.705 415.719 737.845 L 415.873 738.098 L 366.844 738.098 L 317.815 738.098 L 318.793 737.438 L 318.795 737.438 Z M 353.619 669.534 C 353.035 669.397 352.273 669.194 351.927 669.083 C 351.399 668.913 347.564 667.393 341.619 664.997 L 340.36 664.49 L 339.464 663.314 L 338.568 662.138 L 338.865 660.061 L 339.163 657.983 L 339.519 657.388 C 339.715 657.061 339.914 656.741 339.961 656.677 C 340.023 656.593 340.396 656.526 341.305 656.434 C 342.434 656.321 342.637 656.32 343.272 656.424 C 343.661 656.488 344.653 656.646 345.475 656.775 C 346.884 656.997 347.133 657.064 349.803 657.946 C 351.863 658.627 353.343 659.177 355.232 659.965 L 357.828 661.049 L 358.501 661.803 L 359.175 662.556 L 359.081 663.352 C 358.977 664.233 358.361 666.498 357.862 667.834 C 357.58 668.588 357.498 668.725 357.065 669.159 C 356.625 669.6 356.547 669.646 356.182 669.682 C 354.987 669.801 354.69 669.784 353.619 669.534 Z"/>
    <g id="g-1" transform="matrix(1, 0, 0, 1, 83.995575, 500.398773)">
      <rect id="rect3465" style="fill:#427bc3" ry="0" height="0" width="6" y="12.5" x="16"/>
      <g id="g2525">
        <g transform="matrix(1.332988, 0, 0, 1.387608, 123.163742, 90.843491)" style="">
          <path style="fill: rgb(226, 83, 135);" d="M31,26.962h26.924C56.94,12.541,45.421,1.022,31,0.038V26.962z"/>
          <path style="fill: rgb(127, 127, 127);" d="M50.386,48.615c4.343-4.71,7.151-10.858,7.614-17.653H32.733L50.386,48.615z"/>
          <path style="fill: rgb(17, 46, 107);" d="M27,28.134V0.038C11.918,1.067,0,13.619,0,28.962C0,36.25,2.695,42.905,7.134,48L27,28.134z"/>
          <path style="fill: rgb(24, 65, 153);" d="M28.414,32.376L9.962,50.828c5.095,4.439,11.75,7.134,19.038,7.134 c6.99,0,13.396-2.479,18.401-6.599L28.414,32.376z"/>
        </g>
        <g transform="matrix(1.332988, 0, 0, 1.387608, 123.164314, 90.843781)" style=""/>
        <g transform="matrix(1.332988, 0, 0, 1.387608, 123.164314, 90.843781)" style=""/>
        <g transform="matrix(1.332988, 0, 0, 1.387608, 123.164314, 90.843781)" style=""/>
        <g transform="matrix(1.332988, 0, 0, 1.387608, 123.164314, 90.843781)" style=""/>
        <g transform="matrix(1.332988, 0, 0, 1.387608, 123.164314, 90.843781)" style=""/>
        <g transform="matrix(1.332988, 0, 0, 1.387608, 123.164314, 90.843781)" style=""/>
        <g transform="matrix(1.332988, 0, 0, 1.387608, 123.164314, 90.843781)" style=""/>
        <g transform="matrix(1.332988, 0, 0, 1.387608, 123.164314, 90.843781)" style=""/>
        <g transform="matrix(1.332988, 0, 0, 1.387608, 123.164314, 90.843781)" style=""/>
        <g transform="matrix(1.332988, 0, 0, 1.387608, 123.164314, 90.843781)" style=""/>
        <g transform="matrix(1.332988, 0, 0, 1.387608, 123.164314, 90.843781)" style=""/>
        <g transform="matrix(1.332988, 0, 0, 1.387608, 123.164314, 90.843781)" style=""/>
        <g transform="matrix(1.332988, 0, 0, 1.387608, 123.164314, 90.843781)" style=""/>
        <g transform="matrix(1.332988, 0, 0, 1.387608, 123.164314, 90.843781)" style=""/>
        <g transform="matrix(1.332988, 0, 0, 1.387608, 123.164314, 90.843781)" style=""/>
      </g>
    </g>
  </g>
</svg>